<?xml version="1.0" standalone="no"?>
<!DOCTYPE svg PUBLIC "-//W3C//DTD SVG 20010904//EN"
 "http://www.w3.org/TR/2001/REC-SVG-20010904/DTD/svg10.dtd">
<svg version="1.0" xmlns="http://www.w3.org/2000/svg"
 width="580.000000pt" height="580.000000pt" viewBox="0 0 580.000000 580.000000"
 preserveAspectRatio="xMidYMid meet">
<metadata>
Created by potrace 1.14, written by Peter Selinger 2001-2017
</metadata>
<g transform="translate(0.000000,580.000000) scale(0.100000,-0.100000)"
fill="#000000" stroke="none">
<path d="M3225 4424 c-217 -22 -420 -99 -519 -197 -29 -29 -59 -63 -67 -76
l-15 -24 -50 38 c-64 50 -152 89 -272 123 -92 26 -108 27 -312 27 -192 -1
-224 -3 -294 -23 -126 -36 -183 -69 -272 -157 -65 -65 -90 -98 -127 -172 -25
-50 -51 -116 -57 -145 l-12 -54 -82 -18 c-330 -72 -531 -348 -553 -756 -16
-312 119 -578 402 -790 145 -108 283 -167 415 -177 l76 -6 -4 -91 c-5 -110 13
-206 70 -380 47 -144 72 -186 110 -186 38 0 57 32 53 88 -2 26 -7 87 -10 136
-3 49 -7 99 -10 110 -2 12 -7 44 -10 73 -3 29 -14 76 -25 105 -22 60 -21 92 5
135 53 90 303 173 685 227 301 43 412 49 702 42 280 -8 308 -5 308 34 0 33
-66 60 -180 75 -19 3 -62 8 -95 12 -77 10 -501 10 -580 0 -33 -4 -80 -10 -105
-13 -46 -5 -255 -39 -300 -49 -14 -3 -72 -14 -130 -25 -148 -27 -167 -31 -225
-44 -11 -3 -72 -19 -135 -36 -113 -31 -152 -36 -198 -26 -298 65 -471 188
-587 416 -46 90 -59 161 -59 315 0 146 22 252 71 350 32 64 128 149 210 187
64 28 240 78 280 78 32 0 48 32 68 133 35 171 130 301 287 396 73 43 285 71
406 52 124 -19 303 -89 452 -176 108 -63 120 -65 155 -18 63 85 166 172 270
228 110 59 177 80 289 92 182 19 344 -2 557 -73 118 -39 141 -39 147 4 4 26
-48 85 -104 118 -58 34 -211 88 -304 107 -109 23 -179 25 -325 11z"/>
<path d="M4160 3688 c-37 -19 -46 -29 -48 -54 -4 -41 11 -51 86 -59 76 -7 218
-52 287 -90 115 -63 191 -132 259 -235 109 -165 134 -332 81 -535 -36 -139
-93 -243 -180 -330 -90 -90 -230 -164 -310 -165 -84 -1 -142 -50 -183 -158
-55 -143 -75 -285 -75 -514 1 -111 -2 -138 -13 -138 -8 0 -58 6 -112 14 -53 8
-115 17 -137 19 -22 3 -76 10 -120 16 -44 6 -102 13 -129 16 -27 3 -52 7 -56
10 -43 27 -939 26 -1140 -1 -128 -17 -245 -61 -256 -97 -9 -28 45 -77 84 -77
15 0 162 7 327 15 384 19 579 19 808 0 330 -27 648 -65 810 -97 63 -12 112
-17 117 -12 5 5 4 63 -3 133 -17 200 15 523 66 649 22 55 22 56 81 69 197 44
417 236 545 474 108 200 136 384 87 571 -45 176 -106 289 -210 392 -35 34 -90
75 -122 92 -33 16 -61 31 -64 34 -3 3 -9 6 -15 7 -5 2 -35 12 -65 22 -62 22
-169 40 -280 47 -65 5 -81 2 -120 -18z"/>
</g>
</svg>
